<svg id="Layer_1" data-name="Layer 1" xmlns="http://www.w3.org/2000/svg" viewBox="0 0 358.89 46.95">
  <defs>
    <style>
      .cls-1 {
        fill: #212529;
      }
    </style>
  </defs>
  <g>
    <path class="cls-1" d="M802.57,516.33a18,18,0,0,0-1.54-4c-.76-1.3-1.24-1.63-3.89-1.63h-4.8V534.1c0,3.74.39,4.27,4.95,4.56V540h-14v-1.34c4.46-.29,4.85-.77,4.85-4.56V510.72H783.8c-2.64,0-3.41.28-4.22,1.73a22.09,22.09,0,0,0-1.59,3.88h-1.44c.29-2.92.58-6,.72-8.64h1.11c.72,1.15,1.24,1.11,2.59,1.11h19a2.42,2.42,0,0,0,2.45-1.11h1.15c0,2.26.19,5.72.43,8.5Z" transform="translate(-776.55 -505.48)"/>
    <path class="cls-1" d="M831,520.22c-2.59.34-2.93.72-4.17,3.6-1.59,3.84-4.32,10.23-6.82,16.71h-1.39c-2-5.52-4.37-11.24-6.63-16.85-1.1-2.79-1.49-3.07-4-3.46v-1.29h9.79v1.29c-2.64.34-2.73.67-2,2.74,1.2,3.31,3.22,8.4,4.56,11.76,1.73-4.27,3.32-8.21,4.37-11.28.82-2.35.67-2.88-2.49-3.22v-1.29H831Z" transform="translate(-776.55 -505.48)"/>
    <path class="cls-1" d="M845.62,518.35c6,0,10.47,4.56,10.47,10.75,0,7.78-5.76,11.48-10.47,11.48A10.54,10.54,0,0,1,835,529.87C835,522.05,841.06,518.35,845.62,518.35Zm-.57,1.63c-2.93,0-5.57,2.83-5.57,8.4,0,6.1,2.69,10.52,6.62,10.52,3,0,5.48-2.16,5.48-8.74C851.58,524.54,849.27,520,845.05,520Z" transform="translate(-776.55 -505.48)"/>
    <path class="cls-1" d="M862.37,520.13a29.58,29.58,0,0,0,7.06-1.88v16.47a21.16,21.16,0,0,1-1.1,7.82,25.42,25.42,0,0,1-5.76,9.37,2,2,0,0,1-1.25.52,2.25,2.25,0,0,1-1.78-2.16,1,1,0,0,1,.77-1.1c1.78-.48,3-1,3.7-1.83a7,7,0,0,0,1.24-3.36,71.42,71.42,0,0,0,.39-9.31v-9.5c0-3.22-.24-3.41-3.27-3.84Zm5-6.68a2.49,2.49,0,0,1-2.45-2.45,2.46,2.46,0,0,1,2.5-2.54,2.41,2.41,0,0,1,2.35,2.54A2.45,2.45,0,0,1,867.32,513.45Z" transform="translate(-776.55 -505.48)"/>
    <path class="cls-1" d="M890.93,540v-1.34c3.07-.29,3.46-.53,3.46-3.7V512c0-2.93-.24-3.22-3.31-3.61v-1.24a33.88,33.88,0,0,0,7.1-1.64V535c0,3.17.29,3.41,3.41,3.7V540Z" transform="translate(-776.55 -505.48)"/>
    <path class="cls-1" d="M907,540v-1.34c3-.29,3.37-.53,3.37-3.8V525c0-3-.15-3.16-3-3.64v-1.16a31.05,31.05,0,0,0,6.82-1.92v16.61c0,3.27.33,3.51,3.45,3.8V540Zm5-26.45a2.63,2.63,0,0,1-2.55-2.55,2.6,2.6,0,0,1,2.59-2.64,2.51,2.51,0,0,1,2.45,2.64A2.55,2.55,0,0,1,912,513.55Z" transform="translate(-776.55 -505.48)"/>
    <path class="cls-1" d="M940.85,535.68c-2.11,2.78-5.32,4.9-8.21,4.9-6.09,0-9.69-5-9.69-10.09a11.36,11.36,0,0,1,4.85-9.4,12.68,12.68,0,0,1,7.29-2.74,7.11,7.11,0,0,1,4.47,1.3,1.51,1.51,0,0,1,.77,1.39,2.42,2.42,0,0,1-1.73,2.16c-.24,0-.43-.1-.91-.48a7.11,7.11,0,0,0-4.85-2c-3.17,0-6,2.69-6,7.68,0,6.68,4.52,8.88,7.3,8.88,2,0,3.65-.52,5.86-2.64Z" transform="translate(-776.55 -505.48)"/>
    <path class="cls-1" d="M959.91,540v-1.34c2.78-.29,3.07-.63,3.07-3.89v-7.92c0-3.36-1.2-5.62-4.37-5.62a8.37,8.37,0,0,0-5.33,2.5V535c0,3.31.29,3.41,3.13,3.7V540H946v-1.34c3.16-.34,3.45-.53,3.45-3.7v-9.89c0-3.12-.33-3.26-2.93-3.7v-1.24a27.41,27.41,0,0,0,6.72-1.92V522c1-.67,2-1.39,3.27-2.21a7.37,7.37,0,0,1,4-1.44c3.84,0,6.24,2.83,6.24,7.49V535c0,3.26.29,3.41,3.08,3.7V540Z" transform="translate(-776.55 -505.48)"/>
    <path class="cls-1" d="M975.51,540v-1.34c3-.29,3.36-.53,3.36-3.8V525c0-3-.15-3.16-3-3.64v-1.16a30.9,30.9,0,0,0,6.82-1.92v16.61c0,3.27.34,3.51,3.46,3.8V540Zm5-26.45A2.63,2.63,0,0,1,978,511a2.6,2.6,0,0,1,2.59-2.64A2.51,2.51,0,0,1,983,511,2.56,2.56,0,0,1,980.5,513.55Z" transform="translate(-776.55 -505.48)"/>
    <path class="cls-1" d="M1014.92,540a4.94,4.94,0,0,1-2.07.63c-3.07,0-4.7-1.88-4.7-5.72v-14h-3.32l-.19-.57,1.3-1.39h2.21v-4c.91-1,2.3-2.2,3.21-3.16l.72.09c-.09,2-.14,4.8-.14,7.11h5.47a1.49,1.49,0,0,1-.29,2h-5.18v12.29c0,3.89,1.54,4.61,2.78,4.61a6.77,6.77,0,0,0,2.93-.77l.43,1.25Z" transform="translate(-776.55 -505.48)"/>
    <path class="cls-1" d="M1033.73,540h-11v-1.34c3-.29,3.31-.53,3.31-3.65V525c0-3.17-.19-3.31-3-3.65v-1.2a26.61,26.61,0,0,0,6.76-2v5.28c1.69-2.5,3.7-5.14,6.1-5.14,1.78,0,2.79,1.1,2.79,2.3a3.21,3.21,0,0,1-1.64,2.64.94.94,0,0,1-1.24-.09,3,3,0,0,0-2.16-1.2c-1,0-2.79,1.49-3.85,3.93v9c0,3.17.25,3.41,3.94,3.7Z" transform="translate(-776.55 -505.48)"/>
    <path class="cls-1" d="M1060.61,535.92c-3.07,3.84-6.43,4.66-8,4.66-5.85,0-9.4-4.81-9.4-10.33a12.34,12.34,0,0,1,3.12-8.4,9.84,9.84,0,0,1,7.15-3.5,7.49,7.49,0,0,1,7.34,7.44c0,1-.19,1.39-1,1.58-1,.2-7.1.63-12.81.82-.15,6.43,3.79,9.07,7.2,9.07a8.07,8.07,0,0,0,5.56-2.45Zm-8.25-15.75c-2.21,0-4.37,2.07-5,6,2.68,0,5.37,0,8.2-.15.87,0,1.16-.24,1.16-1C1056.72,522.48,1055,520.17,1052.36,520.17Z" transform="translate(-776.55 -505.48)"/>
    <path class="cls-1" d="M1080.39,540v-1.34c2.78-.29,3.07-.63,3.07-3.89v-7.92c0-3.36-1.2-5.62-4.37-5.62a8.37,8.37,0,0,0-5.33,2.5V535c0,3.31.29,3.41,3.12,3.7V540h-10.37v-1.34c3.17-.34,3.46-.53,3.46-3.7v-9.89c0-3.12-.34-3.26-2.93-3.7v-1.24a27.54,27.54,0,0,0,6.72-1.92V522c1-.67,2-1.39,3.27-2.21a7.37,7.37,0,0,1,4-1.44c3.84,0,6.24,2.83,6.24,7.49V535c0,3.26.29,3.41,3.07,3.7V540Z" transform="translate(-776.55 -505.48)"/>
    <path class="cls-1" d="M1113.46,535.92c-3.07,3.84-6.43,4.66-8,4.66-5.86,0-9.41-4.81-9.41-10.33a12.34,12.34,0,0,1,3.12-8.4,9.88,9.88,0,0,1,7.15-3.5,7.49,7.49,0,0,1,7.35,7.44c0,1-.19,1.39-1,1.58-1,.2-7.11.63-12.82.82-.14,6.43,3.79,9.07,7.2,9.07a8.07,8.07,0,0,0,5.57-2.45Zm-8.26-15.75c-2.21,0-4.37,2.07-5,6,2.69,0,5.38,0,8.21-.15.87,0,1.15-.24,1.15-1C1109.57,522.48,1107.89,520.17,1105.2,520.17Z" transform="translate(-776.55 -505.48)"/>
    <path class="cls-1" d="M1130.5,540h-11v-1.34c3-.29,3.31-.53,3.31-3.65V525c0-3.17-.19-3.31-3-3.65v-1.2a26.56,26.56,0,0,0,6.77-2v5.28c1.68-2.5,3.7-5.14,6.1-5.14,1.78,0,2.78,1.1,2.78,2.3a3.2,3.2,0,0,1-1.63,2.64,1,1,0,0,1-1.25-.09,3,3,0,0,0-2.16-1.2c-1,0-2.78,1.49-3.84,3.93v9c0,3.17.24,3.41,3.94,3.7Z" transform="translate(-776.55 -505.48)"/>
  </g>
</svg>
